<mxfile host="app.diagrams.net" modified="2023-10-01T15:03:38.442Z" agent="Mozilla/5.0 (Windows NT 10.0; Win64; x64; rv:109.0) Gecko/20100101 Firefox/118.0" etag="aqRL25JqTD_-3PvZKO1P" version="22.0.0" type="device">
  <diagram name="Seite-1" id="C7tgi6djsMrONAQpHHiP">
    <mxGraphModel dx="1434" dy="709" grid="1" gridSize="10" guides="1" tooltips="1" connect="1" arrows="1" fold="1" page="1" pageScale="1" pageWidth="827" pageHeight="1169" math="0" shadow="0">
      <root>
        <mxCell id="0" />
        <mxCell id="1" parent="0" />
        <mxCell id="feYgFSx0iFeDLDfqNgUY-2" value="" style="shape=curlyBracket;whiteSpace=wrap;html=1;rounded=1;flipH=1;labelPosition=right;verticalLabelPosition=middle;align=left;verticalAlign=middle;strokeWidth=4;size=0.5;" parent="1" vertex="1">
          <mxGeometry x="470" y="80" width="39" height="70" as="geometry" />
        </mxCell>
        <mxCell id="feYgFSx0iFeDLDfqNgUY-3" value="" style="shape=curlyBracket;whiteSpace=wrap;html=1;rounded=1;flipH=1;labelPosition=right;verticalLabelPosition=middle;align=left;verticalAlign=middle;strokeWidth=4;size=0.5;" parent="1" vertex="1">
          <mxGeometry x="470" y="150" width="39" height="400" as="geometry" />
        </mxCell>
        <mxCell id="feYgFSx0iFeDLDfqNgUY-4" value="" style="shape=curlyBracket;whiteSpace=wrap;html=1;rounded=1;flipH=1;labelPosition=right;verticalLabelPosition=middle;align=left;verticalAlign=middle;strokeWidth=4;size=0.5;" parent="1" vertex="1">
          <mxGeometry x="470" y="550" width="39" height="187.5" as="geometry" />
        </mxCell>
        <mxCell id="feYgFSx0iFeDLDfqNgUY-5" value="&lt;font size=&quot;1&quot;&gt;&lt;b style=&quot;font-size: 25px;&quot;&gt;Anwendungsphase&lt;/b&gt;&lt;/font&gt;" style="text;html=1;align=center;verticalAlign=middle;resizable=0;points=[];autosize=1;strokeColor=none;fillColor=none;" parent="1" vertex="1">
          <mxGeometry x="509" y="95" width="250" height="40" as="geometry" />
        </mxCell>
        <mxCell id="feYgFSx0iFeDLDfqNgUY-6" value="&lt;font style=&quot;font-size: 25px;&quot;&gt;&lt;b&gt;Geometriephase&lt;br&gt;&lt;/b&gt;&lt;/font&gt;" style="text;html=1;align=center;verticalAlign=middle;resizable=0;points=[];autosize=1;strokeColor=none;fillColor=none;" parent="1" vertex="1">
          <mxGeometry x="509" y="330" width="220" height="40" as="geometry" />
        </mxCell>
        <mxCell id="feYgFSx0iFeDLDfqNgUY-7" value="&lt;font style=&quot;font-size: 25px;&quot;&gt;&lt;b&gt;Rasterisierungsphase&lt;br&gt;&lt;/b&gt;&lt;/font&gt;" style="text;html=1;align=center;verticalAlign=middle;resizable=0;points=[];autosize=1;strokeColor=none;fillColor=none;" parent="1" vertex="1">
          <mxGeometry x="509" y="622.5" width="280" height="40" as="geometry" />
        </mxCell>
        <mxCell id="NF9msxNfBCDtqX3Vfjhk-3" style="edgeStyle=orthogonalEdgeStyle;rounded=0;orthogonalLoop=1;jettySize=auto;html=1;exitX=0.5;exitY=1;exitDx=0;exitDy=0;entryX=0.5;entryY=0;entryDx=0;entryDy=0;strokeWidth=2;" parent="1" source="NF9msxNfBCDtqX3Vfjhk-1" target="NF9msxNfBCDtqX3Vfjhk-2" edge="1">
          <mxGeometry relative="1" as="geometry" />
        </mxCell>
        <mxCell id="NF9msxNfBCDtqX3Vfjhk-1" value="&lt;font style=&quot;font-size: 22px;&quot;&gt;Vertex-Spezifikation&lt;/font&gt;" style="rounded=0;whiteSpace=wrap;html=1;gradientDirection=east;fillColor=#dae8fc;strokeColor=#000000;" parent="1" vertex="1">
          <mxGeometry x="220" y="95" width="250" height="40" as="geometry" />
        </mxCell>
        <mxCell id="NF9msxNfBCDtqX3Vfjhk-16" style="edgeStyle=orthogonalEdgeStyle;rounded=0;orthogonalLoop=1;jettySize=auto;html=1;exitX=0.5;exitY=1;exitDx=0;exitDy=0;entryX=0.5;entryY=0;entryDx=0;entryDy=0;strokeWidth=2;" parent="1" source="NF9msxNfBCDtqX3Vfjhk-2" target="NF9msxNfBCDtqX3Vfjhk-5" edge="1">
          <mxGeometry relative="1" as="geometry" />
        </mxCell>
        <mxCell id="NF9msxNfBCDtqX3Vfjhk-2" value="&lt;font style=&quot;font-size: 22px;&quot;&gt;Szenentransformation&lt;/font&gt;" style="rounded=0;whiteSpace=wrap;html=1;gradientDirection=east;fillColor=#dae8fc;strokeColor=#000000;" parent="1" vertex="1">
          <mxGeometry x="220" y="160" width="250" height="40" as="geometry" />
        </mxCell>
        <mxCell id="NF9msxNfBCDtqX3Vfjhk-23" style="edgeStyle=orthogonalEdgeStyle;rounded=0;orthogonalLoop=1;jettySize=auto;html=1;exitX=0.5;exitY=1;exitDx=0;exitDy=0;entryX=0.5;entryY=0;entryDx=0;entryDy=0;strokeWidth=2;" parent="1" source="NF9msxNfBCDtqX3Vfjhk-5" target="NF9msxNfBCDtqX3Vfjhk-21" edge="1">
          <mxGeometry relative="1" as="geometry" />
        </mxCell>
        <mxCell id="NF9msxNfBCDtqX3Vfjhk-5" value="&lt;font style=&quot;font-size: 22px;&quot;&gt;Vertex-Shader&lt;/font&gt;" style="rounded=0;whiteSpace=wrap;html=1;gradientDirection=east;fillColor=#dae8fc;strokeColor=#000000;" parent="1" vertex="1">
          <mxGeometry x="220" y="230" width="250" height="40" as="geometry" />
        </mxCell>
        <mxCell id="NF9msxNfBCDtqX3Vfjhk-17" style="edgeStyle=orthogonalEdgeStyle;rounded=0;orthogonalLoop=1;jettySize=auto;html=1;exitX=0.5;exitY=1;exitDx=0;exitDy=0;entryX=0.5;entryY=0;entryDx=0;entryDy=0;strokeWidth=2;" parent="1" source="NF9msxNfBCDtqX3Vfjhk-6" target="NF9msxNfBCDtqX3Vfjhk-8" edge="1">
          <mxGeometry relative="1" as="geometry" />
        </mxCell>
        <mxCell id="NF9msxNfBCDtqX3Vfjhk-6" value="&lt;font style=&quot;font-size: 22px;&quot;&gt;Projektion&lt;/font&gt;" style="rounded=0;whiteSpace=wrap;html=1;gradientDirection=east;fillColor=#dae8fc;strokeColor=#000000;" parent="1" vertex="1">
          <mxGeometry x="220" y="362.5" width="250" height="40" as="geometry" />
        </mxCell>
        <mxCell id="NF9msxNfBCDtqX3Vfjhk-7" style="edgeStyle=orthogonalEdgeStyle;rounded=0;orthogonalLoop=1;jettySize=auto;html=1;exitX=0.5;exitY=1;exitDx=0;exitDy=0;entryX=0.5;entryY=0;entryDx=0;entryDy=0;strokeWidth=2;" parent="1" source="NF9msxNfBCDtqX3Vfjhk-8" target="NF9msxNfBCDtqX3Vfjhk-9" edge="1">
          <mxGeometry relative="1" as="geometry" />
        </mxCell>
        <mxCell id="NF9msxNfBCDtqX3Vfjhk-8" value="&lt;font style=&quot;font-size: 22px;&quot;&gt;Clipping&lt;/font&gt;" style="rounded=0;whiteSpace=wrap;html=1;gradientDirection=east;fillColor=#dae8fc;strokeColor=#000000;" parent="1" vertex="1">
          <mxGeometry x="220" y="427.5" width="250" height="40" as="geometry" />
        </mxCell>
        <mxCell id="NF9msxNfBCDtqX3Vfjhk-18" style="edgeStyle=orthogonalEdgeStyle;rounded=0;orthogonalLoop=1;jettySize=auto;html=1;exitX=0.5;exitY=1;exitDx=0;exitDy=0;entryX=0.5;entryY=0;entryDx=0;entryDy=0;strokeWidth=2;" parent="1" source="NF9msxNfBCDtqX3Vfjhk-9" target="NF9msxNfBCDtqX3Vfjhk-11" edge="1">
          <mxGeometry relative="1" as="geometry" />
        </mxCell>
        <mxCell id="NF9msxNfBCDtqX3Vfjhk-9" value="&lt;font style=&quot;font-size: 22px;&quot;&gt;Screen-Mapping&lt;/font&gt;" style="rounded=0;whiteSpace=wrap;html=1;gradientDirection=east;fillColor=#dae8fc;strokeColor=#000000;" parent="1" vertex="1">
          <mxGeometry x="220" y="492.5" width="250" height="40" as="geometry" />
        </mxCell>
        <mxCell id="NF9msxNfBCDtqX3Vfjhk-10" style="edgeStyle=orthogonalEdgeStyle;rounded=0;orthogonalLoop=1;jettySize=auto;html=1;exitX=0.5;exitY=1;exitDx=0;exitDy=0;entryX=0.5;entryY=0;entryDx=0;entryDy=0;strokeWidth=2;" parent="1" source="NF9msxNfBCDtqX3Vfjhk-11" target="NF9msxNfBCDtqX3Vfjhk-12" edge="1">
          <mxGeometry relative="1" as="geometry" />
        </mxCell>
        <mxCell id="NF9msxNfBCDtqX3Vfjhk-11" value="&lt;font style=&quot;font-size: 22px;&quot;&gt;Rasterisierung&lt;/font&gt;" style="rounded=0;whiteSpace=wrap;html=1;gradientDirection=east;fillColor=#dae8fc;strokeColor=#000000;" parent="1" vertex="1">
          <mxGeometry x="220" y="557.5" width="250" height="40" as="geometry" />
        </mxCell>
        <mxCell id="NF9msxNfBCDtqX3Vfjhk-20" style="edgeStyle=orthogonalEdgeStyle;rounded=0;orthogonalLoop=1;jettySize=auto;html=1;exitX=0.5;exitY=1;exitDx=0;exitDy=0;entryX=0.5;entryY=0;entryDx=0;entryDy=0;strokeWidth=2;" parent="1" source="NF9msxNfBCDtqX3Vfjhk-12" target="NF9msxNfBCDtqX3Vfjhk-19" edge="1">
          <mxGeometry relative="1" as="geometry" />
        </mxCell>
        <mxCell id="NF9msxNfBCDtqX3Vfjhk-12" value="&lt;font style=&quot;font-size: 22px;&quot;&gt;Fragment-Shader&lt;/font&gt;" style="rounded=0;whiteSpace=wrap;html=1;gradientDirection=east;fillColor=#dae8fc;strokeColor=#000000;" parent="1" vertex="1">
          <mxGeometry x="220" y="622.5" width="250" height="40" as="geometry" />
        </mxCell>
        <mxCell id="NF9msxNfBCDtqX3Vfjhk-19" value="&lt;font style=&quot;font-size: 22px;&quot;&gt;Post-Processing&lt;/font&gt;" style="rounded=0;whiteSpace=wrap;html=1;gradientDirection=east;fillColor=#dae8fc;strokeColor=#000000;" parent="1" vertex="1">
          <mxGeometry x="220" y="687.5" width="250" height="40" as="geometry" />
        </mxCell>
        <mxCell id="NF9msxNfBCDtqX3Vfjhk-22" style="edgeStyle=orthogonalEdgeStyle;rounded=0;orthogonalLoop=1;jettySize=auto;html=1;exitX=0.5;exitY=1;exitDx=0;exitDy=0;entryX=0.5;entryY=0;entryDx=0;entryDy=0;strokeWidth=2;" parent="1" source="NF9msxNfBCDtqX3Vfjhk-21" target="NF9msxNfBCDtqX3Vfjhk-6" edge="1">
          <mxGeometry relative="1" as="geometry" />
        </mxCell>
        <mxCell id="NF9msxNfBCDtqX3Vfjhk-21" value="&lt;font style=&quot;font-size: 22px;&quot;&gt;Tessellation-Shader&lt;/font&gt;" style="rounded=0;whiteSpace=wrap;html=1;gradientDirection=east;fillColor=#dae8fc;strokeColor=#000000;" parent="1" vertex="1">
          <mxGeometry x="220" y="295" width="250" height="40" as="geometry" />
        </mxCell>
        <mxCell id="NF9msxNfBCDtqX3Vfjhk-24" value="" style="endArrow=none;html=1;rounded=0;strokeWidth=2;" parent="1" edge="1">
          <mxGeometry width="50" height="50" relative="1" as="geometry">
            <mxPoint x="10" y="149" as="sourcePoint" />
            <mxPoint x="320" y="149" as="targetPoint" />
          </mxGeometry>
        </mxCell>
        <mxCell id="NF9msxNfBCDtqX3Vfjhk-25" value="&lt;div style=&quot;font-size: 21px;&quot;&gt;&lt;font style=&quot;font-size: 21px;&quot;&gt;Objektkoordinaten&lt;/font&gt;&lt;/div&gt;" style="text;html=1;align=center;verticalAlign=middle;resizable=0;points=[];autosize=1;strokeColor=none;fillColor=none;fontSize=21;" parent="1" vertex="1">
          <mxGeometry x="9" y="110" width="190" height="40" as="geometry" />
        </mxCell>
        <mxCell id="NF9msxNfBCDtqX3Vfjhk-26" value="" style="endArrow=none;html=1;rounded=0;strokeWidth=2;" parent="1" edge="1">
          <mxGeometry width="50" height="50" relative="1" as="geometry">
            <mxPoint x="10" y="219" as="sourcePoint" />
            <mxPoint x="320" y="219" as="targetPoint" />
          </mxGeometry>
        </mxCell>
        <mxCell id="NF9msxNfBCDtqX3Vfjhk-27" value="&lt;font style=&quot;font-size: 21px;&quot;&gt;Kamerakoordinaten&lt;/font&gt;" style="text;html=1;align=center;verticalAlign=middle;resizable=0;points=[];autosize=1;strokeColor=none;fillColor=none;fontSize=21;" parent="1" vertex="1">
          <mxGeometry x="9" y="185" width="210" height="40" as="geometry" />
        </mxCell>
        <mxCell id="NF9msxNfBCDtqX3Vfjhk-29" value="" style="endArrow=none;html=1;rounded=0;strokeWidth=2;" parent="1" edge="1">
          <mxGeometry width="50" height="50" relative="1" as="geometry">
            <mxPoint x="10" y="417" as="sourcePoint" />
            <mxPoint x="320" y="416.5" as="targetPoint" />
          </mxGeometry>
        </mxCell>
        <mxCell id="NF9msxNfBCDtqX3Vfjhk-30" value="&lt;font style=&quot;font-size: 21px;&quot;&gt;Clipping-Koordinaten&lt;/font&gt;" style="text;html=1;align=center;verticalAlign=middle;resizable=0;points=[];autosize=1;strokeColor=none;fillColor=none;fontSize=21;" parent="1" vertex="1">
          <mxGeometry x="9" y="382.5" width="220" height="40" as="geometry" />
        </mxCell>
        <mxCell id="NF9msxNfBCDtqX3Vfjhk-31" value="" style="endArrow=none;html=1;rounded=0;strokeWidth=2;" parent="1" edge="1">
          <mxGeometry width="50" height="50" relative="1" as="geometry">
            <mxPoint x="10" y="547" as="sourcePoint" />
            <mxPoint x="320" y="546.5" as="targetPoint" />
          </mxGeometry>
        </mxCell>
        <mxCell id="NF9msxNfBCDtqX3Vfjhk-32" value="&lt;font style=&quot;font-size: 21px;&quot;&gt;Gerätekoordinaten&lt;/font&gt;" style="text;html=1;align=center;verticalAlign=middle;resizable=0;points=[];autosize=1;strokeColor=none;fillColor=none;fontSize=21;" parent="1" vertex="1">
          <mxGeometry x="9" y="512.5" width="200" height="40" as="geometry" />
        </mxCell>
      </root>
    </mxGraphModel>
  </diagram>
</mxfile>
